<svg width="7" height="12" viewBox="0 0 7 12" fill="none" xmlns="http://www.w3.org/2000/svg">
<path d="M1.70175 11.7018L6.70175 6.70175C6.89474 6.52632 7 6.2807 7 6C7 5.45614 6.54386 5 6 5C5.7193 5 5.47368 5.10526 5.29825 5.29825L0.298246 10.2982C0.105264 10.4737 0 10.7193 0 11C0 11.5439 0.456141 12 1 12C1.2807 12 1.52632 11.8947 1.70175 11.7018ZM6.70175 5.29825L1.70175 0.298246C1.52632 0.105263 1.2807 0 1 0C0.456141 0 0 0.45614 0 1C0 1.2807 0.105264 1.52632 0.298246 1.70175L5.29825 6.70175C5.47368 6.89474 5.7193 7 6 7C6.54386 7 7 6.54386 7 6C7 5.7193 6.89474 5.47368 6.70175 5.29825Z" fill="#F2F2F2"/>
</svg>
